<svg xmlns="http://www.w3.org/2000/svg" xmlns:xlink="http://www.w3.org/1999/xlink" width="51" height="26" version="1.1" viewBox="0 0 51 26"><title>Group</title><desc>Created with Sketch.</desc><defs><linearGradient id="linearGradient-1" x1="50%" x2="50%" y1="0%" y2="100%"><stop offset="0%" stop-color="#81C54C"/><stop offset="100%" stop-color="#50A021"/></linearGradient></defs><g id="Layout" fill="none" fill-rule="evenodd" stroke="none" stroke-width="1"><g id="Desktop-HD-Copy-3" transform="translate(-529.000000, -100.000000)"><g id="Group-6" transform="translate(-1.000000, 80.000000)"><g id="Group-5" transform="translate(132.000000, 19.000000)"><g id="Group" transform="translate(398.000000, 1.000000)"><path id="leaf" fill="url(#linearGradient-1)" d="M1.32639955,19.0192008 L1.32639955,0.00160340576 L0.0831997162,0.00160340576 L0.0831997162,19.0192008 C0.0831997162,22.8832003 2.23359942,25.336 5.96319892,25 L5.96319892,23.8576002 C2.67039936,23.9920001 1.32639955,21.9760004 1.32639955,19.0192008 L1.32639955,19.0192008 Z M22.8639967,19.6240007 L21.5535969,19.6240007 C20.579197,21.9088004 18.7311972,24.1600001 14.6655978,24.1600001 C11.4399982,24.1600001 8.68479861,22.2112004 7.57599876,19.2544008 L22.4943967,12.9712016 C21.1839969,9.64480209 18.0927973,7.25920242 14.4639978,7.25920242 C9.69279847,7.25920242 5.82879899,11.3584019 5.82879899,16.3984012 C5.82879899,21.4384005 9.72639846,25.4031999 14.6655978,25.4031999 C18.7311972,25.4031999 21.5535969,23.3536002 22.8639967,19.6240007 L22.8639967,19.6240007 Z M7.07199882,16.3648012 C7.07199882,11.9632018 10.3983984,8.43520226 14.4639978,8.43520226 C17.1519975,8.43520226 19.5375971,10.014402 20.814397,12.3328017 L7.2399988,18.011201 C7.13919882,17.507201 7.07199882,16.9360011 7.07199882,16.3648012 L7.07199882,16.3648012 Z M41.1087942,16.3984012 C41.1087942,11.3584019 37.2447948,7.25920242 32.4735954,7.25920242 C27.7023961,7.25920242 23.8383966,11.3584019 23.8383966,16.3984012 C23.8383966,21.3712005 27.7023961,25.4031999 32.4735954,25.4031999 C35.699195,25.4031999 38.4543946,23.5552002 39.8655944,20.8336006 L39.8655944,25 L41.1087942,25 L41.1087942,16.3984012 Z M39.8655944,16.3984012 C39.8655944,20.6656006 36.5391949,24.1600001 32.4735954,24.1600001 C28.407996,24.1600001 25.0815964,20.6656006 25.0815964,16.3984012 C25.0815964,12.0640018 28.407996,8.53600224 32.4735954,8.53600224 C36.5391949,8.53600224 39.8655944,12.0640018 39.8655944,16.3984012 L39.8655944,16.3984012 Z M50.2815931,8.93920219 L50.2815931,7.69600236 L45.6447937,7.69600236 L45.6447937,6.58720251 C45.6447937,3.49600293 47.0559935,1.4800032 50.2815931,1.68160318 L50.2815931,0.539203333 C46.5519936,0.203203378 44.3679939,2.65600304 44.3679939,6.48640252 L44.3679939,25 L45.6447937,25 L45.6447937,8.93920219 L50.2815931,8.93920219 Z"/><ellipse id="Oval-Copy" cx="32.46" cy="16.217" fill="#63AF32" rx="1.418" ry="1.565"/></g></g></g></g></g></svg>