<?xml version="1.0" encoding="utf-8"?>
<!-- Generator: Adobe Illustrator 19.2.0, SVG Export Plug-In . SVG Version: 6.00 Build 0)  -->
<svg version="1.1" id="Ellipse_8_1_" xmlns="http://www.w3.org/2000/svg" xmlns:xlink="http://www.w3.org/1999/xlink" x="0px"
	 y="0px" viewBox="0 0 187.2 38.4" style="enable-background:new 0 0 187.2 38.4;" xml:space="preserve">
<style type="text/css">
	.st0{fill-rule:evenodd;clip-rule:evenodd;fill:url(#SVGID_1_);}
</style>
<g id="Ellipse_8">
	<g>
		<linearGradient id="SVGID_1_" gradientUnits="userSpaceOnUse" x1="93.6" y1="-4.8" x2="93.6" y2="38.4">
			<stop  offset="0" style="stop-color:#EF15EC"/>
			<stop  offset="1" style="stop-color:#EF158B"/>
		</linearGradient>
		<path class="st0" d="M75,9.6c-1,0-1.8,0.8-1.8,1.8V24c0,6-4.8,10.8-10.8,10.8S51.6,30,51.6,24V11.4c0-1-0.8-1.8-1.8-1.8
			c-1,0-1.8,0.8-1.8,1.8v13.2c0,0.1,0,0.2,0,0.3c0.5,7.5,6.7,13.5,14.4,13.5s13.9-6,14.4-13.5c0-0.1,0-0.2,0-0.3V11.4
			C76.8,10.4,76,9.6,75,9.6z M93.6,21.6c-1.3,0-2.4,1.1-2.4,2.4c0,1.3,1.1,2.4,2.4,2.4S96,25.3,96,24C96,22.7,94.9,21.6,93.6,21.6z
			 M0.1,22C0.1,22.2,0,22.4,0,22.7v13.9c0,1,0.8,1.8,1.8,1.8c1,0,1.8-0.8,1.8-1.8V24c0-6,4.8-10.8,10.8-10.8V9.6
			C7.1,9.6,1.1,15,0.1,22z M31.2,9.6c-4.3,0-8.2,1.9-10.8,4.9V1.8c0-1-0.8-1.8-1.8-1.8c-1,0-1.8,0.8-1.8,1.8v34.8
			c0,1,0.8,1.8,1.8,1.8c1,0,1.8-0.8,1.8-1.8V24c0-6,4.8-10.8,10.8-10.8C37.2,13.2,42,18,42,24v12.6c0,1,0.8,1.8,1.8,1.8
			c1,0,1.8-0.8,1.8-1.8V23.4c0-0.1,0-0.2,0-0.3C45.1,15.6,38.8,9.6,31.2,9.6z M141.6,23.1c0,0.1,0,0.2,0,0.3v13.2
			c0,1,0.8,1.8,1.8,1.8c1,0,1.8-0.8,1.8-1.8V24c0-6,4.8-10.8,10.8-10.8V9.6C148.4,9.6,142.1,15.6,141.6,23.1z M172.8,9.6
			c-4.3,0-8.2,1.9-10.8,4.9V1.8c0-1-0.8-1.8-1.8-1.8c-1,0-1.8,0.8-1.8,1.8v22.8c0,0.1,0,0.2,0,0.3c0.5,7.5,6.7,13.5,14.4,13.5
			c8,0,14.4-6.4,14.4-14.4S180.8,9.6,172.8,9.6z M172.8,34.8c-6,0-10.8-4.8-10.8-10.8s4.8-10.8,10.8-10.8S183.6,18,183.6,24
			S178.8,34.8,172.8,34.8z M124.8,9.6c-8,0-14.4,6.4-14.4,14.4s6.4,14.4,14.4,14.4c4.3,0,8.2-1.9,10.8-4.9v3.1c0,1,0.8,1.8,1.8,1.8
			c1,0,1.8-0.8,1.8-1.8V23.4c0-0.1,0-0.2,0-0.3C138.7,15.6,132.4,9.6,124.8,9.6z M124.8,34.8c-6,0-10.8-4.8-10.8-10.8
			s4.8-10.8,10.8-10.8S135.6,18,135.6,24S130.8,34.8,124.8,34.8z M93.6,9.6c-4.3,0-8.2,1.9-10.8,4.9V1.8C82.8,0.8,82,0,81,0
			c-1,0-1.8,0.8-1.8,1.8v22.3c0,0,0,0,0,0c0.1,7.9,6.5,14.2,14.4,14.2c8,0,14.4-6.4,14.4-14.4S101.6,9.6,93.6,9.6z M93.6,34.8
			c-6,0-10.8-4.8-10.8-10.8s4.8-10.8,10.8-10.8S104.4,18,104.4,24S99.6,34.8,93.6,34.8z"/>
	</g>
</g>
</svg>
