<?xml version="1.0" encoding="UTF-8" standalone="no"?>
<svg width="188px" height="39px" viewBox="0 0 188 39" version="1.1" xmlns="http://www.w3.org/2000/svg" xmlns:xlink="http://www.w3.org/1999/xlink">
    <!-- Generator: Sketch 3.6.1 (26313) - http://www.bohemiancoding.com/sketch -->
    <title>Shape</title>
    <desc>Created with Sketch.</desc>
    <defs>
        <linearGradient x1="50%" y1="-12.5%" x2="50%" y2="100%" id="linearGradient-1">
            <stop stop-color="#FD4565" offset="0%"></stop>
            <stop stop-color="#EF158B" offset="100%"></stop>
        </linearGradient>
    </defs>
    <g id="Page-1" stroke="none" stroke-width="1" fill="none" fill-rule="evenodd">
        <g id="rhubarb-logo" fill="url(#linearGradient-1)">
            <g id="Ellipse_8">
                <path d="M75,9.6 C74,9.6 73.2,10.4 73.2,11.4 L73.2,24 C73.2,30 68.4,34.8 62.4,34.8 C56.4,34.8 51.6,30 51.6,24 L51.6,11.4 C51.6,10.4 50.8,9.6 49.8,9.6 C48.8,9.6 48,10.4 48,11.4 L48,24.6 L48,24.9 C48.5,32.4 54.7,38.4 62.4,38.4 C70.1,38.4 76.3,32.4 76.8,24.9 L76.8,24.6 L76.8,11.4 C76.8,10.4 76,9.6 75,9.6 L75,9.6 Z M93.6,21.6 C92.3,21.6 91.2,22.7 91.2,24 C91.2,25.3 92.3,26.4 93.6,26.4 C94.9,26.4 96,25.3 96,24 C96,22.7 94.9,21.6 93.6,21.6 L93.6,21.6 Z M0.1,22 C0.1,22.2 0,22.4 0,22.7 L0,36.6 C0,37.6 0.8,38.4 1.8,38.4 C2.8,38.4 3.6,37.6 3.6,36.6 L3.6,24 C3.6,18 8.4,13.2 14.4,13.2 L14.4,9.6 C7.1,9.6 1.1,15 0.1,22 L0.1,22 Z M31.2,9.6 C26.9,9.6 23,11.5 20.4,14.5 L20.4,1.8 C20.4,0.8 19.6,0 18.6,0 C17.6,0 16.8,0.8 16.8,1.8 L16.8,36.6 C16.8,37.6 17.6,38.4 18.6,38.4 C19.6,38.4 20.4,37.6 20.4,36.6 L20.4,24 C20.4,18 25.2,13.2 31.2,13.2 C37.2,13.2 42,18 42,24 L42,36.6 C42,37.6 42.8,38.4 43.8,38.4 C44.8,38.4 45.6,37.6 45.6,36.6 L45.6,23.4 L45.6,23.1 C45.1,15.6 38.8,9.6 31.2,9.6 L31.2,9.6 Z M141.6,23.1 L141.6,23.4 L141.6,36.6 C141.6,37.6 142.4,38.4 143.4,38.4 C144.4,38.4 145.2,37.6 145.2,36.6 L145.2,24 C145.2,18 150,13.2 156,13.2 L156,9.6 C148.4,9.6 142.1,15.6 141.6,23.1 L141.6,23.1 Z M172.8,9.6 C168.5,9.6 164.6,11.5 162,14.5 L162,1.8 C162,0.8 161.2,0 160.2,0 C159.2,0 158.4,0.8 158.4,1.8 L158.4,24.6 L158.4,24.9 C158.9,32.4 165.1,38.4 172.8,38.4 C180.8,38.4 187.2,32 187.2,24 C187.2,16 180.8,9.6 172.8,9.6 L172.8,9.6 Z M172.8,34.8 C166.8,34.8 162,30 162,24 C162,18 166.8,13.2 172.8,13.2 C178.8,13.2 183.6,18 183.6,24 C183.6,30 178.8,34.8 172.8,34.8 L172.8,34.8 Z M124.8,9.6 C116.8,9.6 110.4,16 110.4,24 C110.4,32 116.8,38.4 124.8,38.4 C129.1,38.4 133,36.5 135.6,33.5 L135.6,36.6 C135.6,37.6 136.4,38.4 137.4,38.4 C138.4,38.4 139.2,37.6 139.2,36.6 L139.2,23.4 L139.2,23.1 C138.7,15.6 132.4,9.6 124.8,9.6 L124.8,9.6 Z M124.8,34.8 C118.8,34.8 114,30 114,24 C114,18 118.8,13.2 124.8,13.2 C130.8,13.2 135.6,18 135.6,24 C135.6,30 130.8,34.8 124.8,34.8 L124.8,34.8 Z M93.6,9.6 C89.3,9.6 85.4,11.5 82.8,14.5 L82.8,1.8 C82.8,0.8 82,0 81,0 C80,0 79.2,0.8 79.2,1.8 L79.2,24.1 L79.2,24.1 C79.3,32 85.7,38.3 93.6,38.3 C101.6,38.3 108,31.9 108,23.9 C108,15.9 101.6,9.6 93.6,9.6 L93.6,9.6 Z M93.6,34.8 C87.6,34.8 82.8,30 82.8,24 C82.8,18 87.6,13.2 93.6,13.2 C99.6,13.2 104.4,18 104.4,24 C104.4,30 99.6,34.8 93.6,34.8 L93.6,34.8 Z" id="Shape"></path>
            </g>
        </g>
    </g>
</svg>