<?xml version="1.0" encoding="UTF-8" standalone="no"?>
<svg width="110px" height="26px" viewBox="0 0 110 26" version="1.1" xmlns="http://www.w3.org/2000/svg" xmlns:xlink="http://www.w3.org/1999/xlink">
    <!-- Generator: Sketch 39.1 (31720) - http://www.bohemiancoding.com/sketch -->
    <title>Group Copy 9</title>
    <desc>Created with Sketch.</desc>
    <defs>
        <linearGradient x1="50%" y1="0%" x2="50%" y2="100%" id="linearGradient-1">
            <stop stop-color="#E975B2" offset="0%"></stop>
            <stop stop-color="#F03A82" offset="100%"></stop>
        </linearGradient>
        <linearGradient x1="50%" y1="0%" x2="50%" y2="100%" id="linearGradient-2">
            <stop stop-color="#ED5699" offset="0%"></stop>
            <stop stop-color="#EE488D" offset="100%"></stop>
        </linearGradient>
    </defs>
    <g id="Layout" stroke="none" stroke-width="1" fill="none" fill-rule="evenodd">
        <g id="Desktop-HD-Copy-3" transform="translate(-131.000000, -100.000000)">
            <g id="Group-6" transform="translate(-1.000000, 80.000000)">
                <g id="Group-5" transform="translate(132.000000, 18.000000)">
                    <g id="Group-Copy-9" transform="translate(0.000000, 2.000000)">
                        <path d="M0.0674846626,24.8212954 C0.0674846626,25.1888667 0.369703518,25.4868421 0.735577036,25.4868421 L0.647858547,25.4868421 C1.01683578,25.4868421 1.31595092,25.1798975 1.31595092,24.8212954 L1.31595092,14.8473684 C1.31595092,10.5026316 4.01533742,8.31315789 8.40184049,8.68947368 L8.40184049,7.52631579 C3.20552147,6.97894737 0.0674846626,9.95526316 0.0674846626,14.8473684 L0.0674846626,24.8212954 Z M25.1042945,14.8473684 C25.1042945,10.2631579 22.4723926,7.42368421 18.0184049,7.42368421 C15.2515337,7.42368421 12.9907975,8.75789474 11.7423313,10.8447368 L11.7423313,0.710457364 C11.7423313,0.336976548 11.4401124,0.0342105263 11.0742389,0.0342105263 L11.1619574,0.0342105263 C10.7929802,0.0342105263 10.493865,0.337786938 10.493865,0.715006936 L10.493865,24.8060457 C10.493865,25.1820392 10.7960839,25.4868421 11.1619574,25.4868421 L11.0742389,25.4868421 C11.4432161,25.4868421 11.7423313,25.1798975 11.7423313,24.8212954 L11.7423313,14.8473684 C11.7423313,11.2894737 14.4754601,8.65526316 17.9846626,8.65526316 C21.797546,8.65526316 23.8558282,10.9815789 23.8558282,14.8473684 L23.8558282,24.8212954 C23.8558282,25.1888667 24.1580471,25.4868421 24.5239206,25.4868421 L24.4362021,25.4868421 C24.8051793,25.4868421 25.1042945,25.1798975 25.1042945,24.8212954 L25.1042945,14.8473684 Z M41.7055215,8.53396778 C41.7055215,8.16639647 41.4033026,7.86842105 41.0374291,7.86842105 L41.1251476,7.86842105 C40.7561704,7.86842105 40.4570552,8.17536563 40.4570552,8.53396778 L40.4570552,18.5078947 C40.4570552,22.0657895 37.9263804,24.6315789 34.3834356,24.6315789 C30.9079755,24.6315789 28.3435583,22.0657895 28.3435583,18.5078947 L28.3435583,8.53396778 C28.3435583,8.16639647 28.0413394,7.86842105 27.6754659,7.86842105 L27.7631844,7.86842105 C27.3942072,7.86842105 27.095092,8.17536563 27.095092,8.53396778 L27.095092,18.5078947 C27.095092,22.7842105 30.1656442,25.8973684 34.3834356,25.8973684 C38.6349693,25.8973684 41.7055215,22.7842105 41.7055215,18.5078947 L41.7055215,8.53396778 Z M52.3006135,7.42368421 C49.095092,7.42368421 46.3282209,9.33947368 44.8773006,12.1447368 L44.8773006,0.702575459 C44.8773006,0.333447699 44.5750818,0.0342105263 44.2092082,0.0342105263 L44.2969267,0.0342105263 C43.9279495,0.0342105263 43.6288344,0.338230288 43.6288344,0.709341092 L43.6288344,16.7289474 C43.6288344,21.7921053 47.5092025,25.8973684 52.3006135,25.8973684 C57.0920245,25.8973684 60.9723926,21.7921053 60.9723926,16.7289474 C60.9723926,11.5973684 57.0920245,7.42368421 52.3006135,7.42368421 Z M59.7239264,16.7289474 C59.7239264,21.0736842 56.3834356,24.6315789 52.3006135,24.6315789 C48.2177914,24.6315789 44.8773006,21.0736842 44.8773006,16.7289474 C44.8773006,12.3157895 48.2177914,8.72368421 52.3006135,8.72368421 C56.3834356,8.72368421 59.7239264,12.3157895 59.7239264,16.7289474 L59.7239264,16.7289474 Z M80.3067485,16.7289474 C80.3067485,11.5973684 76.4263804,7.42368421 71.6349693,7.42368421 C66.8435583,7.42368421 62.9631902,11.5973684 62.9631902,16.7289474 C62.9631902,21.7921053 66.8435583,25.8973684 71.6349693,25.8973684 C74.8742331,25.8973684 77.6411043,24.0157895 79.0582822,21.2447368 L79.0582822,24.8240132 C79.0582822,25.1900835 79.3605011,25.4868421 79.7263746,25.4868421 L79.6386561,25.4868421 C80.0076333,25.4868421 80.3067485,25.1954513 80.3067485,24.8141669 L80.3067485,16.7289474 Z M79.0582822,16.7289474 C79.0582822,21.0736842 75.7177914,24.6315789 71.6349693,24.6315789 C67.5521472,24.6315789 64.2116564,21.0736842 64.2116564,16.7289474 C64.2116564,12.3157895 67.5521472,8.72368421 71.6349693,8.72368421 C75.7177914,8.72368421 79.0582822,12.3157895 79.0582822,16.7289474 L79.0582822,16.7289474 Z M82.2638037,24.8212954 C82.2638037,25.1888667 82.5660225,25.4868421 82.9318961,25.4868421 L82.8441776,25.4868421 C83.2131548,25.4868421 83.5122699,25.1798975 83.5122699,24.8212954 L83.5122699,14.8473684 C83.5122699,10.5026316 86.2116564,8.31315789 90.5981595,8.68947368 L90.5981595,7.52631579 C85.4018405,6.97894737 82.2638037,9.95526316 82.2638037,14.8473684 L82.2638037,24.8212954 Z M101.260736,7.42368421 C98.0552147,7.42368421 95.2883436,9.33947368 93.8374233,12.1447368 L93.8374233,0.702575459 C93.8374233,0.333447699 93.5352045,0.0342105263 93.1693309,0.0342105263 L93.2570494,0.0342105263 C92.8880722,0.0342105263 92.5889571,0.338230288 92.5889571,0.709341092 L92.5889571,16.7289474 C92.5889571,21.7921053 96.4693252,25.8973684 101.260736,25.8973684 C106.052147,25.8973684 109.932515,21.7921053 109.932515,16.7289474 C109.932515,11.5973684 106.052147,7.42368421 101.260736,7.42368421 Z M108.684049,16.7289474 C108.684049,21.0736842 105.343558,24.6315789 101.260736,24.6315789 C97.1779141,24.6315789 93.8374233,21.0736842 93.8374233,16.7289474 C93.8374233,12.3157895 97.1779141,8.72368421 101.260736,8.72368421 C105.343558,8.72368421 108.684049,12.3157895 108.684049,16.7289474 L108.684049,16.7289474 Z" id="rhubarb" fill="url(#linearGradient-1)"></path>
                        <ellipse id="Oval-Copy" fill="url(#linearGradient-2)" cx="52.553681" cy="16.7631579" rx="1.26533742" ry="1.36842105"></ellipse>
                    </g>
                </g>
            </g>
        </g>
    </g>
</svg>