<?xml version="1.0" encoding="UTF-8" standalone="no"?>
<svg width="652px" height="152px" viewBox="0 0 652 152" version="1.1" xmlns="http://www.w3.org/2000/svg" xmlns:xlink="http://www.w3.org/1999/xlink">
    <!-- Generator: Sketch 39.1 (31720) - http://www.bohemiancoding.com/sketch -->
    <title>Group Copy 9</title>
    <desc>Created with Sketch.</desc>
    <defs>
        <linearGradient x1="50%" y1="0%" x2="50%" y2="100%" id="linearGradient-1">
            <stop stop-color="#E975B2" offset="0%"></stop>
            <stop stop-color="#F03A82" offset="100%"></stop>
        </linearGradient>
        <linearGradient x1="50%" y1="0%" x2="50%" y2="100%" id="linearGradient-2">
            <stop stop-color="#ED5699" offset="0%"></stop>
            <stop stop-color="#EE488D" offset="100%"></stop>
        </linearGradient>
    </defs>
    <g id="Rhubarb-Design" stroke="none" stroke-width="1" fill="none" fill-rule="evenodd">
        <g id="Artboard-Copy" transform="translate(-646.000000, -257.000000)">
            <g id="Pink-on-White">
                <g id="Group-Copy-9" transform="translate(646.000000, 257.000000)">
                    <path d="M0.4,144.990681 C0.4,147.204967 2.19133358,149 4.40321305,149 L3.79678695,149 C6.00770047,149 7.8,147.205555 7.8,144.990681 L7.8,86.8 C7.8,61.4 23.8,48.6 49.8,50.8 L49.8,44 C19,40.8 0.4,58.2 0.4,86.8 L0.4,144.990681 Z M148.8,86.8 C148.8,60 133.2,43.4 106.8,43.4 C90.4,43.4 77,51.2 69.6,63.4 L69.6,4.20138901 C69.6,1.99148288 67.8086664,0.2 65.596787,0.2 L66.203213,0.2 C63.9922995,0.2 62.2,1.98792086 62.2,4.19926926 L62.2,145.000731 C62.2,147.209466 63.9913336,149 66.203213,149 L65.596787,149 C67.8077005,149 69.6,147.205555 69.6,144.990681 L69.6,86.8 C69.6,66 85.8,50.6 106.6,50.6 C129.2,50.6 141.4,64.2 141.4,86.8 L141.4,144.990681 C141.4,147.204967 143.191334,149 145.403213,149 L144.796787,149 C147.0077,149 148.8,147.205555 148.8,144.990681 L148.8,86.8 Z M247.2,50.0093194 C247.2,47.7950334 245.408666,46 243.196787,46 L243.803213,46 C241.5923,46 239.8,47.7944452 239.8,50.0093194 L239.8,108.2 C239.8,129 224.8,144 203.8,144 C183.2,144 168,129 168,108.2 L168,50.0093194 C168,47.7950334 166.208666,46 163.996787,46 L164.603213,46 C162.3923,46 160.6,47.7944452 160.6,50.0093194 L160.6,108.2 C160.6,133.2 178.8,151.4 203.8,151.4 C229,151.4 247.2,133.2 247.2,108.2 L247.2,50.0093194 Z M310,43.4 C291,43.4 274.6,54.6 266,71 L266,4.20937133 C266,1.99505669 264.208666,0.2 261.996787,0.2 L262.603213,0.2 C260.3923,0.2 258.6,1.99846867 258.6,4.20799327 L258.6,97.8 C258.6,127.4 281.6,151.4 310,151.4 C338.4,151.4 361.4,127.4 361.4,97.8 C361.4,67.8 338.4,43.4 310,43.4 Z M354,97.8 C354,123.2 334.2,144 310,144 C285.8,144 266,123.2 266,97.8 C266,72 285.8,51 310,51 C334.2,51 354,72 354,97.8 L354,97.8 Z M476,97.8 C476,67.8 453,43.4 424.6,43.4 C396.2,43.4 373.2,67.8 373.2,97.8 C373.2,127.4 396.2,151.4 424.6,151.4 C443.8,151.4 460.2,140.4 468.6,124.2 L468.6,145.001678 C468.6,147.20989 470.391334,149 472.603213,149 L471.996787,149 C474.2077,149 476,147.207786 476,145.003748 L476,97.8 Z M468.6,97.8 C468.6,123.2 448.8,144 424.6,144 C400.4,144 380.6,123.2 380.6,97.8 C380.6,72 400.4,51 424.6,51 C448.8,51 468.6,72 468.6,97.8 L468.6,97.8 Z M487.6,144.990681 C487.6,147.204967 489.391334,149 491.603213,149 L490.996787,149 C493.2077,149 495,147.205555 495,144.990681 L495,86.8 C495,61.4 511,48.6 537,50.8 L537,44 C506.2,40.8 487.6,58.2 487.6,86.8 L487.6,144.990681 Z M600.2,43.4 C581.2,43.4 564.8,54.6 556.2,71 L556.2,4.20937133 C556.2,1.99505669 554.408666,0.2 552.196787,0.2 L552.803213,0.2 C550.5923,0.2 548.8,1.99846867 548.8,4.20799327 L548.8,97.8 C548.8,127.4 571.8,151.4 600.2,151.4 C628.6,151.4 651.6,127.4 651.6,97.8 C651.6,67.8 628.6,43.4 600.2,43.4 Z M644.2,98.8 C644.2,124.2 624.4,145 600.2,145 C576,145 556.2,124.2 556.2,98.8 C556.2,73 576,52 600.2,52 C624.4,52 644.2,73 644.2,98.8 L644.2,98.8 Z" id="rhubarb" fill="url(#linearGradient-1)"></path>
                    <ellipse id="Oval-Copy" fill="url(#linearGradient-2)" cx="311.5" cy="98" rx="7.5" ry="8"></ellipse>
                </g>
            </g>
        </g>
    </g>
</svg>