<svg xmlns="http://www.w3.org/2000/svg" xmlns:xlink="http://www.w3.org/1999/xlink" width="225" height="28" version="1.1" viewBox="0 0 225 28"><title>Group 8</title><desc>Created with Sketch.</desc><defs><linearGradient id="linearGradient-1" x1="50%" x2="50%" y1="0%" y2="100%"><stop offset="0%" stop-color="#E975B2"/><stop offset="100%" stop-color="#F03A82"/></linearGradient><linearGradient id="linearGradient-2" x1="50%" x2="50%" y1="0%" y2="100%"><stop offset="0%" stop-color="#ED5699"/><stop offset="100%" stop-color="#EE488D"/></linearGradient></defs><g id="Layout" fill="none" fill-rule="evenodd" stroke="none" stroke-width="1"><g id="Desktop-HD-Copy-3" transform="translate(-30.000000, -26.000000)"><g id="Group-7"><g id="Group-8" transform="translate(30.000000, 26.000000)"><g id="Group-10" transform="translate(112.000000, 0.000000)"><g id="Group-7" fill="#FFF" transform="translate(15.624932, 0.243502)"><path id="manual" d="M22.39,13.04 C22.39,9.65 19.93,7.16 16.51,7.16 C14.02,7.16 12.07,8.51 11.2,10.58 C10.36,8.51 8.41,7.16 5.89,7.16 C2.5,7.16 0.01,9.65 0.01,13.04 L0.01,23 L1.15,23 L1.15,13.04 C1.15,10.28 3.16,8.3 5.89,8.3 C8.65,8.3 10.66,10.28 10.66,13.04 L10.66,23 L11.77,23 L11.77,13.04 C11.77,10.28 13.78,8.3 16.51,8.3 C19.27,8.3 21.28,10.28 21.28,13.04 L21.28,23 L22.39,23 L22.39,13.04 Z M39.9100001,15.32 C39.9100001,10.82 36.4600001,7.16 32.2000001,7.16 C27.9400001,7.16 24.4900001,10.82 24.4900001,15.32 C24.4900001,19.76 27.9400001,23.36 32.2000001,23.36 C35.0800001,23.36 37.5400001,21.71 38.8000001,19.28 L38.8000001,23 L39.9100001,23 L39.9100001,15.32 Z M38.8000001,15.32 C38.8000001,19.13 35.8300001,22.25 32.2000001,22.25 C28.5700001,22.25 25.6000001,19.13 25.6000001,15.32 C25.6000001,11.45 28.5700001,8.3 32.2000001,8.3 C35.8300001,8.3 38.8000001,11.45 38.8000001,15.32 L38.8000001,15.32 Z M49.2100001,7.16 C45.4300001,7.16 42.7000001,9.89 42.7000001,13.67 L42.7000001,23 L43.8100001,23 L43.8100001,13.67 C43.8100001,10.55 46.0900001,8.3 49.2100001,8.3 C52.3300001,8.3 54.5800001,10.55 54.5800001,13.67 L54.5800001,23 L55.6900001,23 L55.6900001,13.67 C55.6900001,9.89 52.9600001,7.16 49.2100001,7.16 L49.2100001,7.16 Z M71.6500002,7.55 L70.5400002,7.55 L70.5400002,16.88 C70.5400002,20 68.2900002,22.25 65.1400002,22.25 C62.0500002,22.25 59.7700002,20 59.7700002,16.88 L59.7700002,7.55 L58.6600002,7.55 L58.6600002,16.88 C58.6600002,20.63 61.3900002,23.36 65.1400002,23.36 C68.9200002,23.36 71.6500002,20.63 71.6500002,16.88 L71.6500002,7.55 Z M89.1700002,15.32 C89.1700002,10.82 85.7200002,7.16 81.4600002,7.16 C77.2000002,7.16 73.7500002,10.82 73.7500002,15.32 C73.7500002,19.76 77.2000002,23.36 81.4600002,23.36 C84.3400002,23.36 86.8000002,21.71 88.0600002,19.28 L88.0600002,23 L89.1700002,23 L89.1700002,15.32 Z M88.0600002,15.32 C88.0600002,19.13 85.0900002,22.25 81.4600002,22.25 C77.8300002,22.25 74.8600002,19.13 74.8600002,15.32 C74.8600002,11.45 77.8300002,8.3 81.4600002,8.3 C85.0900002,8.3 88.0600002,11.45 88.0600002,15.32 L88.0600002,15.32 Z M92.9200003,17.66 L92.9200003,0.68 L91.8100003,0.68 L91.8100003,17.66 C91.8100003,21.11 93.7300003,23.3 97.0600003,23 L97.0600003,21.98 C94.1200003,22.1 92.9200003,20.3 92.9200003,17.66 L92.9200003,17.66 Z"/></g><rect id="Rectangle-2" width="1" height="27" x=".808" y="1" fill="#E6E6E6"/></g><g id="Group-Copy-9" transform="translate(0.000000, 1.000000)"><path id="rhubarb" fill="url(#linearGradient-1)" d="M0.0619631902,22.911965 C0.0619631902,23.2512616 0.339455048,23.5263158 0.688786438,23.5263158 L0.581458961,23.5263158 C0.927643882,23.5263158 1.20828221,23.2429823 1.20828221,22.911965 L1.20828221,13.7052632 C1.20828221,9.69473684 3.68680982,7.67368421 7.71441718,8.02105263 L7.71441718,6.94736842 C2.94325153,6.44210526 0.0619631902,9.18947368 0.0619631902,13.7052632 L0.0619631902,22.911965 Z M23.0503067,13.7052632 C23.0503067,9.47368421 20.6337423,6.85263158 16.5441718,6.85263158 C14.003681,6.85263158 11.9279141,8.08421053 10.7815951,10.0105263 L10.7815951,0.655806797 C10.7815951,0.311055275 10.5041032,0.0315789474 10.1547718,0.0315789474 L10.2620993,0.0315789474 C9.9159144,0.0315789474 9.63527607,0.311803327 9.63527607,0.647929611 L9.63527607,22.9099651 C9.63527607,23.2503662 9.91276793,23.5263158 10.2620993,23.5263158 L10.1547718,23.5263158 C10.5009568,23.5263158 10.7815951,23.2429823 10.7815951,22.911965 L10.7815951,13.7052632 C10.7815951,10.4210526 13.2911043,7.98947368 16.5131902,7.98947368 C20.0141104,7.98947368 21.9039877,10.1368421 21.9039877,13.7052632 L21.9039877,22.911965 C21.9039877,23.2512616 22.1814796,23.5263158 22.530811,23.5263158 L22.4234835,23.5263158 C22.7696684,23.5263158 23.0503067,23.2429823 23.0503067,22.911965 L23.0503067,13.7052632 Z M38.2932515,7.87750872 C38.2932515,7.53821213 38.0157597,7.26315789 37.6664283,7.26315789 L37.7737558,7.26315789 C37.4275708,7.26315789 37.1469325,7.54649135 37.1469325,7.87750872 L37.1469325,17.0842105 C37.1469325,20.3684211 34.8233129,22.7368421 31.5702454,22.7368421 C28.3791411,22.7368421 26.0245399,20.3684211 26.0245399,17.0842105 L26.0245399,7.87750872 C26.0245399,7.53821213 25.747048,7.26315789 25.3977166,7.26315789 L25.5050441,7.26315789 C25.1588592,7.26315789 24.8782209,7.54649135 24.8782209,7.87750872 L24.8782209,17.0842105 C24.8782209,21.0315789 27.697546,23.9052632 31.5702454,23.9052632 C35.4739264,23.9052632 38.2932515,21.0315789 38.2932515,17.0842105 L38.2932515,7.87750872 Z M48.0214724,6.85263158 C45.0782209,6.85263158 42.5377301,8.62105263 41.2055215,11.2105263 L41.2055215,0.648531193 C41.2055215,0.307797876 40.9280296,0.0315789474 40.5786982,0.0315789474 L40.6860257,0.0315789474 C40.3398408,0.0315789474 40.0592025,0.299057489 40.0592025,0.654776392 L40.0592025,15.4421053 C40.0592025,20.1157895 43.6220859,23.9052632 48.0214724,23.9052632 C52.4208589,23.9052632 55.9837423,20.1157895 55.9837423,15.4421053 C55.9837423,10.7052632 52.4208589,6.85263158 48.0214724,6.85263158 Z M54.8374233,15.4421053 C54.8374233,19.4526316 51.7702454,22.7368421 48.0214724,22.7368421 C44.2726994,22.7368421 41.2055215,19.4526316 41.2055215,15.4421053 C41.2055215,11.3684211 44.2726994,8.05263158 48.0214724,8.05263158 C51.7702454,8.05263158 54.8374233,11.3684211 54.8374233,15.4421053 L54.8374233,15.4421053 Z M73.7361963,15.4421053 C73.7361963,10.7052632 70.1733129,6.85263158 65.7739264,6.85263158 C61.3745399,6.85263158 57.8116564,10.7052632 57.8116564,15.4421053 C57.8116564,20.1157895 61.3745399,23.9052632 65.7739264,23.9052632 C68.7481595,23.9052632 71.2886503,22.1684211 72.5898773,19.6105263 L72.5898773,22.9144737 C72.5898773,23.2523847 72.8673692,23.5263158 73.2167005,23.5263158 L73.1093731,23.5263158 C73.455558,23.5263158 73.7361963,23.2573396 73.7361963,22.9053848 L73.7361963,15.4421053 Z M72.5898773,15.4421053 C72.5898773,19.4526316 69.5226994,22.7368421 65.7739264,22.7368421 C62.0251534,22.7368421 58.9579755,19.4526316 58.9579755,15.4421053 C58.9579755,11.3684211 62.0251534,8.05263158 65.7739264,8.05263158 C69.5226994,8.05263158 72.5898773,11.3684211 72.5898773,15.4421053 L72.5898773,15.4421053 Z M75.5331288,22.911965 C75.5331288,23.2512616 75.8106207,23.5263158 76.1599521,23.5263158 L76.0526246,23.5263158 C76.3988095,23.5263158 76.6794479,23.2429823 76.6794479,22.911965 L76.6794479,13.7052632 C76.6794479,9.69473684 79.1579755,7.67368421 83.1855828,8.02105263 L83.1855828,6.94736842 C78.4144172,6.44210526 75.5331288,9.18947368 75.5331288,13.7052632 L75.5331288,22.911965 Z M92.9757669,6.85263158 C90.0325153,6.85263158 87.4920245,8.62105263 86.159816,11.2105263 L86.159816,0.648531193 C86.159816,0.307797876 85.8823241,0.0315789474 85.5329927,0.0315789474 L85.6403202,0.0315789474 C85.2941353,0.0315789474 85.0134969,0.299057489 85.0134969,0.654776392 L85.0134969,15.4421053 C85.0134969,20.1157895 88.5763804,23.9052632 92.9757669,23.9052632 C97.3751534,23.9052632 100.938037,20.1157895 100.938037,15.4421053 C100.938037,10.7052632 97.3751534,6.85263158 92.9757669,6.85263158 Z M99.7917178,15.4421053 C99.7917178,19.4526316 96.7245399,22.7368421 92.9757669,22.7368421 C89.2269939,22.7368421 86.159816,19.4526316 86.159816,15.4421053 C86.159816,11.3684211 89.2269939,8.05263158 92.9757669,8.05263158 C96.7245399,8.05263158 99.7917178,11.3684211 99.7917178,15.4421053 L99.7917178,15.4421053 Z"/><ellipse id="Oval-Copy" cx="48.254" cy="15.474" fill="url(#linearGradient-2)" rx="1.162" ry="1.263"/></g></g></g></g></g></svg>