<svg xmlns="http://www.w3.org/2000/svg" xmlns:xlink="http://www.w3.org/1999/xlink" width="134" height="26" version="1.1" viewBox="0 0 134 26"><title>Group 2</title><desc>Created with Sketch.</desc><defs><linearGradient id="linearGradient-1" x1="-241.115%" x2="-241.115%" y1="-46.919%" y2="121.176%"><stop offset="0%" stop-color="#55A1D4"/><stop offset="100%" stop-color="#105F9A"/></linearGradient><linearGradient id="linearGradient-2" x1="53.542%" x2="53.542%" y1="-16.116%" y2="160.548%"><stop offset="0%" stop-color="#55A1D4"/><stop offset="100%" stop-color="#105F9A"/></linearGradient></defs><g id="Layout" fill="none" fill-rule="evenodd" stroke="none" stroke-width="1"><g id="Desktop-HD-Copy-3" transform="translate(-1223.000000, -99.000000)"><g id="Group-6" transform="translate(-1.000000, 80.000000)"><g id="Group-5" transform="translate(132.000000, 19.000000)"><g id="Group-2" transform="translate(1092.000000, 0.000000)"><path id="Ω-Copy-3" fill="url(#linearGradient-1)" d="M133.656016,19.5963667 C133.479144,15.9496879 129.977085,14.9678898 126.192032,14.4068622 C122.159358,13.8458347 120.249144,13.1796146 120.21377,11.1108256 C120.178396,9.00697243 122.513102,7.42908255 125.802914,7.42908255 C129.057353,7.42908255 131.144438,8.83165133 131.887299,11.2510825 L133.231524,11.2510825 C132.453289,7.99011006 129.800214,6.20183486 125.76754,6.20183486 C121.204251,6.20183486 118.869545,8.65633023 118.869545,11.1108256 C118.940294,14.687376 122.831471,15.2133393 125.979786,15.6691742 C130.436952,16.3003301 132.241043,17.4223851 132.311791,19.631431 C132.38254,20.5781649 132.064171,21.4547704 131.427433,22.1209906 C130.366203,23.2079814 128.526738,23.9092658 126.333529,23.9092658 C122.477727,23.9092658 119.860027,22.3664401 119.223289,19.4561099 L117.914439,19.4561099 C118.515802,23.1378529 121.770241,25.1365134 126.368904,25.1365134 C128.915855,25.1365134 131.07369,24.3651006 132.38254,23.0326603 C133.266898,22.1209906 133.69139,20.8586786 133.656016,19.5963667 L133.656016,19.5963667 Z"/><g id="Group-2-Copy-5"><path id="Ω-Copy-2" fill="url(#linearGradient-1)" d="M34.680929,20.0206816 L33.3341777,20.0206816 C32.263683,22.8617183 29.7428408,24.6416448 26.4622928,24.6416448 C22.2839105,24.6416448 18.8652341,21.0817917 18.8652341,16.7346633 C18.8652341,12.3190762 22.2839105,8.72499373 26.4622928,8.72499373 C29.6392446,8.72499373 32.1600868,10.5049203 33.2996456,13.3117276 L34.680929,13.3117276 C33.472306,9.75187445 30.3989505,7.42427816 26.4622928,7.42427816 C21.5587367,7.42427816 17.5875469,11.6002597 17.5875469,16.7346633 C17.5875469,21.8006082 21.5587367,25.9081311 26.4622928,25.9081311 C30.3989505,25.9081311 33.5068381,23.5805348 34.680929,20.0206816 L34.680929,20.0206816 Z M53.9018244,16.7346633 C53.9018244,11.6002597 49.9306346,7.42427816 45.0270785,7.42427816 C40.1235225,7.42427816 36.1523327,11.6002597 36.1523327,16.7346633 C36.1523327,21.8006082 40.1235225,25.9081311 45.0270785,25.9081311 C48.3421587,25.9081311 51.1737897,24.0255164 52.6241372,21.2529385 L52.6241372,25.4973788 L53.9018244,25.4973788 L53.9018244,16.7346633 Z M52.6241372,16.7346633 C52.6241372,21.0817917 49.2054608,24.6416448 45.0270785,24.6416448 C40.8486963,24.6416448 37.4300198,21.0817917 37.4300198,16.7346633 C37.4300198,12.3190762 40.8486963,8.72499373 45.0270785,8.72499373 C49.2054608,8.72499373 52.6241372,12.3190762 52.6241372,16.7346633 L52.6241372,16.7346633 Z M58.584712,9.13574602 L66.2163028,9.13574602 L66.2163028,25.4973788 L67.528522,25.4973788 L67.528522,9.13574602 L72.2939497,9.13574602 L72.2939497,7.8692598 L67.528522,7.8692598 L67.528522,6.73969101 C67.528522,3.59059015 68.9443375,1.53682872 72.2939497,1.74220486 L72.2939497,0.578406715 C68.4608883,0.236113143 66.2163028,2.73485622 66.2163028,6.63700294 L66.2163028,7.8692598 L58.584712,7.8692598 L58.584712,6.73969101 C58.584712,3.59059015 60.0005275,1.53682872 63.3501397,1.74220486 L63.3501397,0.578406715 C59.5170783,0.236113143 57.2724928,2.73485622 57.2724928,6.63700294 L57.2724928,25.4973788 L58.584712,25.4973788 L58.584712,9.13574602 Z M81.1206876,7.42427816 C76.2516636,7.42427816 72.2459417,11.6002597 72.2459417,16.7346633 C72.2459417,21.8006082 76.2516636,25.9081311 81.1206876,25.9081311 C86.0242436,25.9081311 90.0299655,21.8006082 90.0299655,16.7346633 C90.0299655,11.6002597 86.0242436,7.42427816 81.1206876,7.42427816 L81.1206876,7.42427816 Z M81.1206876,24.7101036 C76.9423053,24.7101036 73.5236289,21.116021 73.5236289,16.7346633 C73.5236289,12.2506175 76.9423053,8.62230566 81.1206876,8.62230566 C85.3336019,8.62230566 88.7177462,12.2506175 88.7177462,16.7346633 C88.7177462,21.116021 85.3336019,24.7101036 81.1206876,24.7101036 L81.1206876,24.7101036 Z M93.5042301,19.4045532 L93.5042301,0.0307369999 L92.226543,0.0307369999 L92.226543,19.4045532 C92.226543,23.3409293 94.4365964,25.8396723 98.2696579,25.4973788 L98.2696579,24.3335806 C94.8855135,24.4704981 93.5042301,22.4167366 93.5042301,19.4045532 L93.5042301,19.4045532 Z M115.902077,0.0307369999 L114.62439,0.0307369999 L114.62439,12.1479295 C113.174043,9.34112216 110.342412,7.42427816 107.027331,7.42427816 C102.123775,7.42427816 98.1525857,11.6002597 98.1525857,16.7346633 C98.1525857,21.8006082 102.123775,25.9081311 107.027331,25.9081311 C111.930888,25.9081311 115.902077,21.8006082 115.902077,16.7346633 L115.902077,0.0307369999 Z M114.62439,16.7346633 C114.62439,21.0817917 111.205714,24.6416448 107.027331,24.6416448 C102.848949,24.6416448 99.4302728,21.0817917 99.4302728,16.7346633 C99.4302728,12.3190762 102.848949,8.72499373 107.027331,8.72499373 C111.205714,8.72499373 114.62439,12.3190762 114.62439,16.7346633 L114.62439,16.7346633 Z"/><ellipse id="Oval-Copy" cx="81.15" cy="17.033" fill="url(#linearGradient-2)" rx="1.429" ry="1.505"/><path id="Ω-Copy-3" fill="url(#linearGradient-1)" d="M15.9357484,19.6879634 C15.7588767,16.0412846 12.2568179,15.0594864 8.47176454,14.4984589 C4.43909081,13.9374314 2.52887694,13.2712112 2.49350261,11.2024223 C2.45812828,9.09856907 4.79283412,7.52067919 8.0826469,7.52067919 C11.3370853,7.52067919 13.4241709,8.92324798 14.1670318,11.3426791 L15.5112564,11.3426791 C14.7330211,8.08170671 12.0799463,6.29343151 8.04727257,6.29343151 C3.48398387,6.29343151 1.14927803,8.74792688 1.14927803,11.2024223 C1.22002669,14.7789726 5.1112031,15.3049359 8.25951855,15.7607708 C12.7166843,16.3919267 14.5207751,17.5139818 14.5915238,19.7230276 C14.6622725,20.6697615 14.3439035,21.546367 13.7071655,22.2125872 C12.6459356,23.299578 10.8064704,24.0008624 8.61326186,24.0008624 C4.75745979,24.0008624 2.1397593,22.4580367 1.50302134,19.5477065 L0.194171095,19.5477065 C0.795534721,23.2294496 4.04997317,25.2281101 8.64863619,25.2281101 C11.195588,25.2281101 13.3534222,24.4566973 14.6622725,23.1242569 C15.5466307,22.2125872 15.9711227,20.9502753 15.9357484,19.6879634 L15.9357484,19.6879634 Z"/></g></g></g></g></g></g></svg>