<?xml version="1.0" encoding="UTF-8" standalone="no"?>
<svg width="82px" height="26px" viewBox="0 0 82 26" version="1.1" xmlns="http://www.w3.org/2000/svg" xmlns:xlink="http://www.w3.org/1999/xlink">
    <!-- Generator: Sketch 39.1 (31720) - http://www.bohemiancoding.com/sketch -->
    <title>Group 2 Copy 4</title>
    <desc>Created with Sketch.</desc>
    <defs>
        <linearGradient x1="50%" y1="0%" x2="50%" y2="100%" id="linearGradient-1">
            <stop stop-color="#FFCE80" offset="0%"></stop>
            <stop stop-color="#EA9716" offset="100%"></stop>
        </linearGradient>
    </defs>
    <g id="Layout" stroke="none" stroke-width="1" fill="none" fill-rule="evenodd">
        <g id="Desktop-HD-Copy-3" transform="translate(-881.000000, -102.000000)" fill="url(#linearGradient-1)">
            <g id="Group-6" transform="translate(-1.000000, 80.000000)">
                <g id="Group-5" transform="translate(132.000000, 19.000000)">
                    <g id="Group-2-Copy-4" transform="translate(749.000000, 2.000000)">
                        <path d="M23.2750818,6.95209105 L28.738482,6.95209105 L28.738482,5.46313984 L23.2750818,5.46313984 L23.2750818,1.03652811 L21.7706673,1.03652811 L21.7706673,19.0246685 C21.7706673,23.6524898 24.3440079,26.5901503 28.738482,26.1877311 L28.738482,24.8195057 C24.8586761,24.9804733 23.2750818,22.5659579 23.2750818,19.0246685 L23.2750818,6.95209105 Z M49.9036057,19.7490231 L48.3596013,19.7490231 C47.2114955,22.485474 45.0340533,25.181683 40.2436807,25.181683 C36.4430545,25.181683 33.1966862,22.8476513 31.890221,19.306362 L49.4681173,11.781122 C47.9241129,7.79717147 44.2818461,4.93999482 40.0061416,4.93999482 C34.3843819,4.93999482 29.8315484,9.84950964 29.8315484,15.8857984 C29.8315484,21.9220871 34.4239718,26.6706342 40.2436807,26.6706342 C45.0340533,26.6706342 48.3596013,24.2158768 49.9036057,19.7490231 L49.9036057,19.7490231 Z M31.2963731,15.8455564 C31.2963731,10.5738643 35.2157689,6.34846218 40.0061416,6.34846218 C43.1733301,6.34846218 45.9842099,8.23983265 47.4886245,11.0165255 L31.4943224,17.8174107 C31.3755528,17.2137819 31.2963731,16.5296691 31.2963731,15.8455564 L31.2963731,15.8455564 Z M82.1538892,12.8274121 C82.1538892,8.28007457 78.907521,4.93999482 74.3942773,4.93999482 C71.1083193,4.93999482 68.5349786,6.75088143 67.3868727,9.52757424 C66.2783568,6.75088143 63.7050161,4.93999482 60.3794681,4.93999482 C55.9058143,4.93999482 52.6198562,8.28007457 52.6198562,12.8274121 L52.6198562,26.1877311 L54.1242708,26.1877311 L54.1242708,12.8274121 C54.1242708,9.12515499 56.7767912,6.46918796 60.3794681,6.46918796 C64.0217349,6.46918796 66.6742553,9.12515499 66.6742553,12.8274121 L66.6742553,26.1877311 L68.13908,26.1877311 L68.13908,12.8274121 C68.13908,9.12515499 70.7916004,6.46918796 74.3942773,6.46918796 C78.0365441,6.46918796 80.6890645,9.12515499 80.6890645,12.8274121 L80.6890645,26.1877311 L82.1538892,26.1877311 L82.1538892,12.8274121 Z" id="Ω-Copy-2"></path>
                        <path d="M19.0296526,19.9013785 C18.8268753,15.6141412 14.8118845,14.459885 10.4724499,13.8003101 C5.84912718,13.1407351 3.65913219,12.3574898 3.61857673,9.92530717 C3.57802126,7.45190106 6.25468181,5.59684648 10.0263398,5.59684648 C13.7574424,5.59684648 16.1502147,7.24578389 17.0018794,10.0902009 L18.542987,10.0902009 C17.6507669,6.25642144 14.6091071,4.15402625 9.98578438,4.15402625 C4.75412968,4.15402625 2.07746914,7.03966671 2.07746914,9.92530717 C2.15858006,14.1300976 6.61968097,14.7484491 10.2291172,15.2843537 C15.3391055,16.0263756 17.4074341,17.3455255 17.488545,19.9426019 C17.5696559,21.0556347 17.2046568,22.0862205 16.4746584,22.8694658 C15.2579945,24.1473923 13.1491105,24.971861 10.6346718,24.971861 C6.21412634,24.971861 3.2130221,23.1580298 2.48302377,19.7364847 L0.982471643,19.7364847 C1.67191451,24.0649454 5.40301709,26.4146812 10.6752273,26.4146812 C13.5952206,26.4146812 16.0691038,25.5077656 17.5696559,23.9412751 C18.5835425,22.8694658 19.0702081,21.3854221 19.0296526,19.9013785 L19.0296526,19.9013785 Z" id="Ω-Copy-3"></path>
                    </g>
                </g>
            </g>
        </g>
    </g>
</svg>