<?xml version="1.0" standalone="no"?>
<!DOCTYPE svg PUBLIC "-//W3C//DTD SVG 20010904//EN"
 "http://www.w3.org/TR/2001/REC-SVG-20010904/DTD/svg10.dtd">
<svg version="1.0" xmlns="http://www.w3.org/2000/svg"
 width="800.000000pt" height="800.000000pt" viewBox="0 0 800.000000 800.000000"
 preserveAspectRatio="xMidYMid meet">
<metadata>
Created by potrace 1.11, written by Peter Selinger 2001-2013
</metadata>
<g transform="translate(0.000000,800.000000) scale(0.100000,-0.100000)"
fill="#000000" stroke="none">
<path d="M3778 7996 c-1 -2 -43 -6 -93 -10 -106 -7 -155 -13 -250 -27 -38 -6
-86 -12 -105 -15 -19 -2 -78 -14 -130 -25 -52 -11 -103 -22 -114 -24 -130 -27
-386 -107 -556 -175 -404 -159 -796 -396 -1136 -685 -98 -83 -376 -364 -455
-460 -255 -308 -444 -611 -595 -952 -51 -117 -132 -321 -139 -353 -2 -8 -14
-51 -29 -95 -44 -139 -100 -376 -121 -515 -4 -25 -9 -54 -11 -65 -47 -248 -53
-782 -13 -1090 72 -558 236 -1041 517 -1525 295 -509 734 -973 1234 -1308 295
-198 624 -358 958 -469 166 -54 418 -119 540 -138 19 -3 42 -8 50 -10 8 -2 38
-7 66 -10 28 -3 59 -7 70 -9 10 -2 51 -7 89 -11 39 -4 86 -9 105 -12 64 -9
543 -11 635 -2 187 17 212 20 275 30 36 6 81 12 100 15 101 13 368 77 505 120
44 15 87 27 95 29 16 4 200 73 265 100 225 94 480 231 683 367 92 61 294 211
328 243 6 5 41 35 77 65 93 78 349 338 438 445 309 373 548 786 698 1210 18
50 37 102 43 117 5 15 10 30 9 32 0 3 7 25 15 48 17 49 80 295 89 348 3 19 10
51 15 70 4 19 11 57 15 83 3 27 8 59 11 70 47 242 54 783 13 1092 -50 387
-146 742 -292 1081 -52 120 -135 289 -184 372 -24 41 -43 76 -43 78 0 10 -149
236 -214 324 -146 199 -214 279 -411 475 -168 169 -224 219 -375 336 -412 320
-894 561 -1400 699 -135 37 -345 81 -449 96 -25 3 -55 7 -67 9 -11 2 -52 6
-90 10 -38 4 -85 9 -104 12 -38 5 -556 13 -562 9z m527 -1010 c102 -14 132
-18 155 -21 144 -19 449 -97 565 -145 11 -4 63 -25 115 -45 122 -48 333 -157
457 -236 658 -417 1126 -1063 1312 -1808 16 -64 32 -134 35 -156 4 -22 8 -47
11 -55 2 -8 6 -31 9 -50 4 -32 6 -53 22 -165 3 -22 7 -141 9 -265 5 -369 -36
-642 -147 -980 -260 -794 -858 -1458 -1617 -1795 -258 -114 -574 -208 -781
-230 -30 -4 -61 -8 -68 -10 -78 -26 -675 -25 -772 0 -8 2 -35 6 -60 9 -200 26
-529 118 -715 201 -192 86 -317 152 -460 243 -336 216 -648 524 -869 857 -114
171 -170 275 -269 495 -86 192 -177 517 -203 720 -3 25 -7 52 -9 60 -19 70
-27 525 -13 665 13 122 39 286 62 390 62 285 212 654 365 898 406 652 1015
1115 1737 1321 292 84 531 114 859 110 127 -1 248 -5 270 -8z"/>
<path d="M3880 4654 c-176 -33 -322 -126 -421 -267 -172 -245 -163 -571 20
-801 50 -62 55 -67 126 -122 72 -56 194 -108 285 -122 250 -37 506 68 646 264
216 302 155 705 -141 931 -65 49 -179 100 -266 119 -53 11 -188 10 -249 -2z"/>
</g>
</svg>
